# xmcd CD database file
#
# Track frame offsets:
#	150
#	17120
#	62732
#	78962
#	99322
#	140345
#	160370
#	239615
#	253730
#	278625
#
# Disc length: 4122 seconds
#
# Revision: 0
# Processed by: cddbd v1.5.1PL2 Copyright (c) Steve Scherf et al.
# Submitted via: CDex 1.51
#
DISCID=8210180a
DTITLE=Maradisha - World of Nature
DYEAR=2000
DGENRE=New Age
TTITLE0=World of Nature
TTITLE1=Arise
TTITLE2=Dark and Daylight
TTITLE3=Mammoths and Elephants
TTITLE4=First Natural Park
TTITLE5=Night and Day
TTITLE6=Natural (Wo)Man
TTITLE7=Mountains
TTITLE8=Rainfall
TTITLE9=Growing Green
EXTD=YEAR: 2000
EXTT0=
EXTT1=
EXTT2=
EXTT3=
EXTT4=
EXTT5=
EXTT6=
EXTT7=
EXTT8=
EXTT9=
PLAYORDER=
